<svg xmlns="http://www.w3.org/2000/svg" xmlns:xlink="http://www.w3.org/1999/xlink" width="176" height="173.326" viewBox="0 0 176 173.326">
  <defs>
    <linearGradient id="linear-gradient" x1="0.117" y1="2.684" x2="0.547" y2="0.324" gradientUnits="objectBoundingBox">
      <stop offset="0" stop-color="#74e4b6"/>
      <stop offset="0.528" stop-color="#73cba8"/>
      <stop offset="1" stop-color="#92e0a7"/>
    </linearGradient>
    <linearGradient id="linear-gradient-2" x1="0.449" y1="0.775" x2="0.577" y2="0.086" xlink:href="#linear-gradient"/>
  </defs>
  <g id="Groupe_471" data-name="Groupe 471" transform="translate(-824 -344)">
    <g id="Groupe_466" data-name="Groupe 466" transform="translate(824 344)">
      <g id="Groupe_462" data-name="Groupe 462" transform="translate(10.056)">
        <path id="Tracé_268" data-name="Tracé 268" d="M4601.329,1764.709c-3.411-4.064-8.6-6.41-15.411-6.973a54.013,54.013,0,0,0-15.113,1.164c.367-1.409.689-2.8.959-4.166,2.325-11.693,1.018-20.849-3.886-27.211a5.669,5.669,0,1,0-8.98,6.922c2.491,3.232,3.24,8.681,2.165,15.757a63.834,63.834,0,0,1-4.211,14.722,5.67,5.67,0,0,0,4.133,7.858h0a5.665,5.665,0,0,0,3.007-.247c7.263-2.659,23.822-6.289,28.651-.538a5.633,5.633,0,0,0,3.85,2c.168.015.335.022.5.022a5.67,5.67,0,0,0,4.333-9.315Z" transform="translate(-4436.713 -1717.254)" fill="url(#linear-gradient)"/>
        <path id="Tracé_269" data-name="Tracé 269" d="M3719.352,1725.559a27.011,27.011,0,0,0-20.391,4.194l-6.839,4.659a5.094,5.094,0,0,0-2.284,3.922,5.167,5.167,0,0,0,1.776,4.253,5.082,5.082,0,0,0,6.226.337l6.894-4.7a16.959,16.959,0,0,1,19.094,28.034l-2.28,1.553a5.145,5.145,0,0,0-1.562,6.812c7.422,12.906,3.753,28.442-8.724,36.94s-28.277,6.225-37.568-5.405a5.144,5.144,0,0,0-6.911-1.043l-2.282,1.554a17.04,17.04,0,0,1-23.565-4.469,14.477,14.477,0,0,1-.956-1.644l.1-.076c-.168-.241-.335-.492-.5-.745a22.984,22.984,0,0,1-1-2.749,28.293,28.293,0,0,1,3.324-22.856,52.15,52.15,0,0,1,6.585-8.562l2.9-2.825,25.8-26.032c.333-.332.6-.642.833-.915.2-.23.367-.428.553-.614l9.476-9.611.036-.038a47.513,47.513,0,0,0,7.5-11.5,44.542,44.542,0,0,0,4.094-18.573v-.04l0-.04c-.5-6.542-2.366-12.474-5.248-16.7a27.3,27.3,0,0,0-36.458-7.948,37.867,37.867,0,0,0-35.727-9.7,39.073,39.073,0,0,0-22.116,15.064,37.867,37.867,0,0,0-4.056,36.8,27.178,27.178,0,0,0,31.859,44.008l6.84-4.659a5.092,5.092,0,0,0,2.282-3.922,5.164,5.164,0,0,0-1.775-4.253,5.082,5.082,0,0,0-6.222-.34l-.057.039-6.841,4.66a16.96,16.96,0,0,1-19.1-28.034l2.28-1.553a5.144,5.144,0,0,0,1.563-6.812c-7.422-12.906-3.753-28.442,8.724-36.94s28.277-6.224,37.567,5.405a5.145,5.145,0,0,0,6.912,1.044l2.282-1.554a17.04,17.04,0,0,1,23.564,4.469,15.236,15.236,0,0,1,1.2,2.144l.125.265a22.835,22.835,0,0,1,1.025,2.8,28.291,28.291,0,0,1-3.323,22.856,52.2,52.2,0,0,1-6.585,8.563l-2.9,2.825-25.806,26.035-.019.019c-.225.24-.442.486-.651.725-.253.288-.491.56-.713.782l-5.663,5.744h0l-.727.737-3.086,3.13-.036.038a47.485,47.485,0,0,0-7.505,11.5,44.545,44.545,0,0,0-4.093,18.573v.039l0,.04c.5,6.542,2.366,12.474,5.247,16.7a27.3,27.3,0,0,0,36.459,7.948,37.856,37.856,0,0,0,35.726,9.7,39.071,39.071,0,0,0,22.116-15.065,37.869,37.869,0,0,0,4.056-36.8,27.105,27.105,0,0,0-11.469-48.2Z" transform="translate(-3585.47 -1659.898)" fill="url(#linear-gradient-2)"/>
      </g>
      <g id="Groupe_463" data-name="Groupe 463" transform="translate(0 107.847)">
        <path id="Tracé_270" data-name="Tracé 270" d="M3513.876,2629.392c-5.045,0-10-3.1-10-11.505s4.956-11.461,10-11.461a9.208,9.208,0,0,1,7.39,3.142l-3.1,3.01a5.225,5.225,0,0,0-4.293-2.124,5.058,5.058,0,0,0-4.159,1.991c-.974,1.239-1.328,2.832-1.328,5.443s.354,4.248,1.328,5.487a5.058,5.058,0,0,0,4.159,1.991,5.223,5.223,0,0,0,4.293-2.124l3.1,2.965A9.245,9.245,0,0,1,3513.876,2629.392Z" transform="translate(-3503.875 -2597.619)" fill="#175639"/>
        <path id="Tracé_271" data-name="Tracé 271" d="M3692.422,2566.48c-4.293,0-6.151-2.876-6.151-6.195v-25.312h4.514v25.046c0,1.726.62,2.611,2.434,2.611h1.991v3.85Z" transform="translate(-3663.792 -2534.973)" fill="#175639"/>
        <path id="Tracé_272" data-name="Tracé 272" d="M3802.869,2626.737a9.081,9.081,0,0,1-6.726,2.655,8.974,8.974,0,0,1-6.682-2.655c-2.124-2.213-2.655-5.045-2.655-8.85,0-3.762.531-6.594,2.655-8.806a8.974,8.974,0,0,1,6.682-2.655,9.08,9.08,0,0,1,6.726,2.655c2.124,2.212,2.655,5.044,2.655,8.806C3805.524,2621.692,3804.993,2624.524,3802.869,2626.737Zm-3.407-15a4.574,4.574,0,0,0-3.319-1.284,4.47,4.47,0,0,0-3.275,1.284c-1.372,1.371-1.549,3.717-1.549,6.151s.177,4.78,1.549,6.151a4.5,4.5,0,0,0,3.275,1.328,4.606,4.606,0,0,0,3.319-1.328c1.372-1.371,1.549-3.717,1.549-6.151S3800.834,2613.107,3799.462,2611.736Z" transform="translate(-3751.937 -2597.619)" fill="#175639"/>
        <path id="Tracé_273" data-name="Tracé 273" d="M4000.2,2631.015v-2.257a8.025,8.025,0,0,1-5.974,2.523,7.782,7.782,0,0,1-5.532-2.036c-1.726-1.681-2.257-3.806-2.257-6.328v-14.338h4.513v13.674c0,3.5,1.991,5,4.514,5s4.646-1.549,4.646-5v-13.674h4.513v22.436Z" transform="translate(-3926.966 -2599.508)" fill="#175639"/>
        <path id="Tracé_274" data-name="Tracé 274" d="M4197.5,2566.48v-2.389a6.9,6.9,0,0,1-5.931,2.655,7.763,7.763,0,0,1-5.487-1.991c-2.168-2.212-2.522-5.8-2.522-9.514,0-3.673.354-7.257,2.522-9.47a7.651,7.651,0,0,1,5.443-1.991,6.943,6.943,0,0,1,5.886,2.522v-11.328h4.513v31.507Zm-4.735-18.674c-4.116,0-4.69,3.451-4.69,7.434s.574,7.479,4.69,7.479c4.071,0,4.646-3.5,4.646-7.479S4196.832,2547.806,4192.761,2547.806Z" transform="translate(-4099.79 -2534.973)" fill="#175639"/>
      </g>
      <path id="Tracé_280" data-name="Tracé 280" d="M4185.1,2942.66v9.346h5.96V2941A22.135,22.135,0,0,1,4185.1,2942.66Z" transform="translate(-4101.146 -2783.113)" fill="#abc462"/>
    </g>
    <g id="Groupe_470" data-name="Groupe 470" transform="translate(824 490.823)">
      <g id="Groupe_469" data-name="Groupe 469" transform="translate(0)">
        <path id="Tracé_294" data-name="Tracé 294" d="M742.149,1368.98h-3.917v9.3h-6.406v-26.063h10.323c5.784,0,8.9,4.1,8.9,8.383S747.933,1368.98,742.149,1368.98Zm-.293-11.018h-3.624v5.271h3.624a2.639,2.639,0,1,0,0-5.271Z" transform="translate(-731.826 -1351.995)" fill="#ea8a3b"/>
        <path id="Tracé_295" data-name="Tracé 295" d="M915.6,1378.278l-4.612-9.7h-2.16v9.7h-6.406v-26.063h10.323c5.784,0,8.9,4.1,8.9,8.383a7.5,7.5,0,0,1-4.246,6.809l5.638,10.872Zm-3.148-20.316h-3.624v5.271h3.624a2.639,2.639,0,1,0,0-5.271Z" transform="translate(-879.475 -1351.995)" fill="#e26498"/>
        <path id="Tracé_296" data-name="Tracé 296" d="M1088.019,1374.23a10.627,10.627,0,0,1-14.5,0c-2.672-2.672-2.672-6-2.672-10.4s0-7.724,2.672-10.4a10.627,10.627,0,0,1,14.5,0c2.672,2.672,2.672,6,2.672,10.4S1090.691,1371.558,1088.019,1374.23Zm-4.685-16.8a3.46,3.46,0,0,0-5.125,0c-.586.769-.952,1.647-.952,6.406s.366,5.6.952,6.369a3.388,3.388,0,0,0,5.125,0c.586-.769.952-1.611.952-6.369S1083.919,1358.2,1083.334,1357.428Z" transform="translate(-1025.242 -1350.583)" fill="#72b8db"/>
        <path id="Tracé_297" data-name="Tracé 297" d="M1266,1378.278l-8.346-13.1v13.1h-6.406v-26.063h5.6l8.346,13.1v-13.1h6.406v26.063Z" transform="translate(-1181.37 -1351.995)" fill="#abc462"/>
        <path id="Tracé_298" data-name="Tracé 298" d="M1452.621,1374.23a10.627,10.627,0,0,1-14.5,0c-2.672-2.672-2.672-6-2.672-10.4s0-7.724,2.672-10.4a10.627,10.627,0,0,1,14.5,0c2.672,2.672,2.672,6,2.672,10.4S1455.293,1371.558,1452.621,1374.23Zm-4.686-16.8a3.46,3.46,0,0,0-5.125,0c-.586.769-.952,1.647-.952,6.406s.366,5.6.952,6.369a3.388,3.388,0,0,0,5.125,0c.586-.769.952-1.611.952-6.369S1448.521,1358.2,1447.936,1357.428Z" transform="translate(-1340.793 -1350.583)" fill="#efb33a"/>
        <path id="Tracé_299" data-name="Tracé 299" d="M1614.517,1357.926v20.353h-6.406v-20.353H1601.7v-5.711h19.218v5.711Z" transform="translate(-1484.68 -1351.995)" fill="#8683cc"/>
        <path id="Tracé_300" data-name="Tracé 300" d="M1772.3,1378.278v-26.063h17.717v5.711h-11.311v4.356h9.664v5.711h-9.664v4.576h11.311v5.71Z" transform="translate(-1632.327 -1351.995)" fill="#9f9983"/>
      </g>
    </g>
    <path id="Tracé_301" data-name="Tracé 301" d="M-1654.111,542.281s5.1,4.7,7.45,5.89-5.355,8.5-5.355,8.5l-6.984-5.1s.186-8.5.3-8.5S-1654.111,542.281-1654.111,542.281Z" transform="translate(2577.616 -50.56)" fill="#74e4b6"/>
  </g>
</svg>
